<svg width="60%" height="54px" viewBox="0 0 352 114" rounded="lg" draggable="false" loading="lazy" style="fill-rule: evenodd; clip-rule: evenodd; stroke-linejoin: round; stroke-miterlimit: 2;"><rect id="BancoFalabella" x="0" y="0" width="351.6" height="113.1" style="fill: none;"></rect><g><clipPath id="_clip1"><rect x="5.425" y="-1.169" width="341.584" height="109.412"></rect></clipPath><g clip-path="url(#_clip1)"><path d="M72.596,107.556c-17.256,0 -67.171,-13.96 -67.171,-31.213c-0,-17.222 49.915,-31.182 67.171,-31.182c17.219,-0 31.187,13.96 31.187,31.182c-0,17.253 -13.968,31.213 -31.187,31.213" style="fill: rgb(0, 133, 62); fill-rule: nonzero;"></path><path d="M57.213,56.876c-11.211,-6.804 -38.193,-35.618 -31.374,-46.837c6.808,-11.208 44.825,-0.59 56.033,6.236c11.215,6.8 14.799,21.42 7.984,32.632c-6.823,11.215 -21.415,14.796 -32.643,7.969" style="fill: rgb(171, 210, 95); fill-rule: nonzero;"></path><path d="M47.737,49.344c3.576,3.319 6.93,6.014 9.464,7.543c10.886,6.628 24.892,3.439 32.022,-6.953c-4.822,-3.005 -10.468,-4.822 -16.563,-4.822c-5.73,-0 -15.026,1.552 -24.923,4.232" style="fill: rgb(14, 111, 70); fill-rule: nonzero;"></path><path d="M145.548,41.333c-0,-1.951 -0.621,-3.561 -1.871,-4.806c-1.246,-1.246 -3.07,-1.863 -5.473,-1.863l-10.17,-0l0,13.343l10.104,-0c1.472,-0 2.661,-0.207 3.603,-0.648c0.943,-0.426 1.691,-0.962 2.27,-1.618c0.567,-0.655 0.966,-1.383 1.188,-2.188c0.234,-0.782 0.349,-1.534 0.349,-2.22m-17.514,-12.856l9.905,-0c0.587,-0 1.2,-0.073 1.882,-0.211c0.667,-0.138 1.288,-0.41 1.871,-0.797c0.567,-0.395 1.035,-0.912 1.403,-1.606c0.371,-0.656 0.54,-1.545 0.54,-2.653c0,-1.464 -0.475,-2.625 -1.426,-3.48c-0.97,-0.859 -2.261,-1.284 -3.894,-1.284l-10.281,-0l0,10.031Zm18.549,2.752c1.142,0.445 2.146,1.062 3.009,1.813c0.843,0.755 1.537,1.606 2.077,2.534c0.522,0.943 0.916,1.947 1.192,3.005c0.272,1.058 0.395,2.139 0.395,3.235c0,1.921 -0.372,3.68 -1.134,5.267c-0.752,1.606 -1.768,2.959 -3.071,4.101c-1.28,1.154 -2.779,2.028 -4.515,2.641c-1.744,0.614 -3.615,0.909 -5.604,0.909l-14.934,-0c-1.303,-0 -2.208,-0.265 -2.698,-0.817c-0.495,-0.555 -0.729,-1.441 -0.729,-2.671l0,-35.932c0,-1.181 0.234,-2.054 0.729,-2.626c0.49,-0.578 1.395,-0.866 2.698,-0.866l14.206,-0.061c1.878,-0 3.622,0.207 5.262,0.617c1.637,0.41 3.029,1.046 4.19,1.893c1.161,0.871 2.085,1.952 2.76,3.312c0.671,1.346 0.996,2.952 0.996,4.83c0,1.844 -0.452,3.507 -1.368,4.998c-0.928,1.499 -2.078,2.615 -3.461,3.397l-0,0.421Z" style="fill: rgb(74, 80, 85); fill-rule: nonzero;"></path><path d="M174.621,39.679l-5.884,-0c-0.69,-0 -1.434,0.042 -2.219,0.126c-0.794,0.077 -1.553,0.307 -2.273,0.667c-0.717,0.372 -1.3,0.901 -1.771,1.591c-0.468,0.694 -0.71,1.664 -0.71,2.879c0,1.755 0.583,2.982 1.775,3.687c1.185,0.686 2.76,1.024 4.711,1.024c0.28,-0 0.679,-0.008 1.2,-0.02c0.51,-0.023 1.042,-0.072 1.614,-0.157c0.582,-0.076 1.173,-0.195 1.805,-0.299c0.636,-0.138 1.215,-0.291 1.752,-0.498l-0,-9Zm7.233,11.564c-0,0.989 -0.387,1.668 -1.173,2.032c-0.897,0.402 -1.871,0.755 -2.906,1.043c-1.042,0.283 -2.115,0.505 -3.208,0.666c-1.119,0.165 -2.204,0.284 -3.289,0.338c-1.073,0.065 -2.112,0.088 -3.093,0.088c-2.687,-0 -4.918,-0.265 -6.689,-0.824c-1.782,-0.548 -3.2,-1.288 -4.228,-2.204c-1.046,-0.916 -1.771,-2.001 -2.177,-3.243c-0.402,-1.242 -0.613,-2.564 -0.613,-3.948c-0,-1.43 0.237,-2.806 0.697,-4.144c0.476,-1.314 1.246,-2.476 2.304,-3.48c1.054,-1.001 2.442,-1.798 4.136,-2.415c1.69,-0.609 3.764,-0.92 6.202,-0.92l6.857,0l0,-1.031c0,-0.786 -0.08,-1.503 -0.245,-2.147c-0.161,-0.667 -0.468,-1.23 -0.943,-1.721c-0.467,-0.486 -1.115,-0.87 -1.916,-1.13c-0.836,-0.265 -1.886,-0.399 -3.205,-0.399c-1.372,-0 -2.894,0.126 -4.523,0.372c-1.614,0.237 -2.967,0.525 -3.975,0.851c-0.448,0.126 -0.79,0.145 -0.993,0.069c-0.187,-0.096 -0.341,-0.307 -0.414,-0.683l-0.858,-3.484c-0.154,-0.655 0.023,-1.077 0.544,-1.276c1.721,-0.663 3.603,-1.135 5.639,-1.384c2.043,-0.272 3.951,-0.403 5.749,-0.403c4.255,0 7.36,0.94 9.349,2.814c1.986,1.878 2.971,4.611 2.971,8.203l-0,18.36Z" style="fill: rgb(74, 80, 85); fill-rule: nonzero;"></path><path d="M198.064,27.98c-0.453,0 -1.081,0.012 -1.925,0.039c-0.847,0.019 -1.813,0.141 -2.897,0.341l-0,25.34c-0,0.445 -0.096,0.736 -0.257,0.851c-0.161,0.131 -0.468,0.184 -0.912,0.184l-4.784,0c-0.399,0 -0.698,-0.053 -0.889,-0.184c-0.188,-0.115 -0.28,-0.406 -0.28,-0.851l-0,-26.195c-0,-1.483 0.268,-2.626 0.805,-3.438c0.525,-0.805 1.625,-1.369 3.296,-1.652c0.406,-0.035 0.951,-0.104 1.652,-0.177c0.679,-0.088 1.418,-0.153 2.189,-0.188c0.782,-0.038 1.533,-0.076 2.269,-0.13c0.725,-0.031 1.357,-0.05 1.886,-0.05c2.691,0 5.033,0.28 7.007,0.847c1.97,0.579 3.588,1.491 4.887,2.73c1.273,1.241 2.219,2.871 2.829,4.879c0.606,1.982 0.92,4.4 0.92,7.21l-0,16.164c-0,0.445 -0.081,0.736 -0.245,0.851c-0.161,0.131 -0.468,0.184 -0.905,0.184l-4.807,0c-0.398,0 -0.69,-0.053 -0.878,-0.184c-0.18,-0.115 -0.26,-0.406 -0.26,-0.851l-0,-16.286c-0,-1.587 -0.138,-2.979 -0.406,-4.156c-0.265,-1.184 -0.725,-2.161 -1.384,-2.932c-0.648,-0.782 -1.533,-1.357 -2.66,-1.759c-1.116,-0.384 -2.542,-0.587 -4.251,-0.587" style="fill: rgb(74, 80, 85); fill-rule: nonzero;"></path><path d="M232.222,49.176c1.314,0 2.614,-0.176 3.921,-0.487c1.303,-0.333 2.388,-0.701 3.25,-1.111c0.445,-0.196 0.752,-0.269 0.94,-0.184c0.184,0.088 0.337,0.295 0.459,0.617l1.534,3.546c0.41,0.655 0.276,1.165 -0.372,1.529c-1.671,0.943 -3.477,1.56 -5.42,1.867c-1.94,0.318 -3.741,0.46 -5.409,0.46c-4.576,-0 -8.068,-1.384 -10.499,-4.171c-2.426,-2.771 -3.641,-6.892 -3.641,-12.362c0,-2.564 0.337,-4.898 1.039,-6.995c0.697,-2.116 1.679,-3.902 2.967,-5.393c1.288,-1.487 2.836,-2.634 4.645,-3.427c1.829,-0.793 3.868,-1.192 6.156,-1.192c1.679,-0 3.289,0.176 4.876,0.514c1.564,0.345 3.04,0.877 4.431,1.632c0.372,0.196 0.587,0.407 0.686,0.61c0.069,0.192 0.012,0.51 -0.188,0.916l-1.54,3.607c-0.158,0.326 -0.338,0.537 -0.518,0.609c-0.184,0.085 -0.514,0.02 -1.008,-0.184c-0.989,-0.367 -2.001,-0.674 -3.063,-0.946c-1.058,-0.269 -2.181,-0.403 -3.358,-0.403c-1.387,0 -2.583,0.295 -3.587,0.897c-1.012,0.594 -1.829,1.372 -2.45,2.354c-0.632,0.981 -1.096,2.112 -1.376,3.396c-0.291,1.292 -0.433,2.622 -0.433,4.005c0,1.442 0.115,2.768 0.376,4.014c0.245,1.253 0.659,2.334 1.253,3.273c0.583,0.947 1.392,1.683 2.411,2.216c1.024,0.521 2.327,0.793 3.918,0.793" style="fill: rgb(74, 80, 85); fill-rule: nonzero;"></path><path d="M265.899,38.695c0,-1.472 -0.13,-2.867 -0.337,-4.193c-0.23,-1.303 -0.609,-2.461 -1.161,-3.465c-0.556,-1.012 -1.323,-1.794 -2.277,-2.365c-0.955,-0.575 -2.174,-0.874 -3.63,-0.874c-1.319,-0 -2.457,0.283 -3.442,0.832c-0.982,0.559 -1.79,1.307 -2.434,2.257c-0.66,0.943 -1.143,2.074 -1.445,3.381c-0.311,1.319 -0.457,2.733 -0.457,4.247c0,3.408 0.537,6.079 1.645,8.042c1.111,1.947 3.055,2.917 5.88,2.917c1.43,0 2.629,-0.287 3.607,-0.893c0.985,-0.59 1.774,-1.376 2.357,-2.369c0.598,-0.977 1.02,-2.116 1.288,-3.419c0.276,-1.284 0.406,-2.653 0.406,-4.098m7.279,-0.176c0,5.428 -1.268,9.598 -3.768,12.515c-2.51,2.909 -6.255,4.377 -11.227,4.377c-4.944,0 -8.628,-1.425 -11.054,-4.247c-2.423,-2.836 -3.646,-6.991 -3.646,-12.469c0,-2.691 0.38,-5.079 1.1,-7.168c0.748,-2.069 1.752,-3.829 3.067,-5.255c1.311,-1.422 2.871,-2.522 4.692,-3.273c1.801,-0.74 3.81,-1.127 6.021,-1.127c4.849,-0 8.537,1.468 11.047,4.439c2.5,2.959 3.768,7.018 3.768,12.208" style="fill: rgb(74, 80, 85); fill-rule: nonzero;"></path><path d="M169.036,92.378l-5.933,-0c-0.698,-0 -1.442,0.046 -2.239,0.111c-0.824,0.088 -1.571,0.322 -2.3,0.69c-0.705,0.406 -1.311,0.889 -1.794,1.598c-0.452,0.709 -0.701,1.691 -0.701,2.89c-0,1.787 0.617,3.017 1.79,3.734c1.196,0.701 2.787,1.054 4.753,1.054c0.276,-0 0.694,-0.027 1.196,-0.05c0.521,-0.034 1.081,-0.065 1.629,-0.157c0.575,-0.081 1.196,-0.18 1.832,-0.303c0.652,-0.126 1.242,-0.268 1.767,-0.498l0,-9.069Zm7.279,11.679c0,0.985 -0.387,1.656 -1.18,2.035c-0.909,0.395 -1.898,0.763 -2.902,1.039c-1.073,0.288 -2.143,0.522 -3.262,0.683c-1.096,0.161 -2.212,0.287 -3.281,0.341c-1.108,0.065 -2.15,0.08 -3.132,0.08c-2.717,0 -4.983,-0.26 -6.765,-0.816c-1.809,-0.564 -3.208,-1.296 -4.27,-2.223c-1.031,-0.955 -1.775,-2.024 -2.185,-3.297c-0.406,-1.238 -0.633,-2.564 -0.633,-3.956c0,-1.472 0.261,-2.825 0.733,-4.17c0.46,-1.342 1.226,-2.522 2.307,-3.542c1.1,-0.993 2.453,-1.809 4.171,-2.419c1.728,-0.636 3.806,-0.939 6.255,-0.939l6.919,0l-0,-1.042c-0,-0.767 -0.088,-1.495 -0.226,-2.178c-0.18,-0.64 -0.502,-1.207 -0.97,-1.721c-0.483,-0.475 -1.131,-0.874 -1.932,-1.104c-0.847,-0.295 -1.913,-0.433 -3.224,-0.433c-1.41,0 -2.913,0.123 -4.576,0.391c-1.652,0.226 -2.967,0.502 -4.021,0.855c-0.441,0.107 -0.778,0.127 -0.966,0.061c-0.199,-0.069 -0.33,-0.306 -0.418,-0.69l-0.874,-3.515c-0.169,-0.655 0,-1.088 0.541,-1.284c1.717,-0.64 3.626,-1.127 5.68,-1.403c2.059,-0.253 3.983,-0.402 5.807,-0.402c4.271,-0 7.406,0.947 9.415,2.84c1.993,1.879 2.989,4.661 2.989,8.291l0,18.518Z" style="fill: rgb(127, 135, 140); fill-rule: nonzero;"></path><path d="M215.11,92.378l-5.926,-0c-0.713,-0 -1.464,0.046 -2.265,0.111c-0.801,0.088 -1.552,0.322 -2.273,0.69c-0.725,0.406 -1.33,0.889 -1.806,1.598c-0.49,0.709 -0.689,1.691 -0.689,2.89c-0,1.787 0.563,3.017 1.79,3.734c1.176,0.701 2.748,1.054 4.749,1.054c0.299,-0 0.674,-0.027 1.207,-0.05c0.487,-0.034 1.051,-0.065 1.641,-0.157c0.563,-0.081 1.157,-0.18 1.805,-0.303c0.644,-0.126 1.227,-0.268 1.767,-0.498l0,-9.069Zm7.268,11.679c-0,0.985 -0.376,1.656 -1.181,2.035c-0.885,0.395 -1.886,0.763 -2.905,1.039c-1.054,0.288 -2.131,0.522 -3.251,0.683c-1.13,0.161 -2.215,0.287 -3.3,0.341c-1.1,0.065 -2.131,0.08 -3.116,0.08c-2.73,0 -4.98,-0.26 -6.758,-0.816c-1.802,-0.564 -3.22,-1.296 -4.27,-2.223c-1.039,-0.955 -1.783,-2.024 -2.181,-3.297c-0.418,-1.238 -0.64,-2.564 -0.64,-3.956c-0,-1.472 0.253,-2.825 0.736,-4.17c0.483,-1.342 1.23,-2.522 2.296,-3.542c1.088,-0.993 2.468,-1.809 4.162,-2.419c1.71,-0.636 3.799,-0.939 6.256,-0.939l6.926,0l0,-1.042c0,-0.767 -0.072,-1.495 -0.245,-2.178c-0.169,-0.64 -0.468,-1.207 -0.924,-1.721c-0.486,-0.475 -1.157,-0.874 -1.97,-1.104c-0.828,-0.295 -1.893,-0.433 -3.22,-0.433c-1.391,0 -2.917,0.123 -4.557,0.391c-1.652,0.226 -2.975,0.502 -4.014,0.855c-0.452,0.107 -0.778,0.127 -0.969,0.061c-0.223,-0.069 -0.357,-0.306 -0.464,-0.69l-0.851,-3.515c-0.176,-0.655 0.027,-1.088 0.552,-1.284c1.732,-0.64 3.622,-1.127 5.688,-1.403c2.066,-0.253 3.991,-0.402 5.807,-0.402c4.278,-0 7.421,0.947 9.411,2.84c1.989,1.879 2.982,4.661 2.982,8.291l-0,18.518Z" style="fill: rgb(127, 135, 140); fill-rule: nonzero;"></path><path d="M272.841,80.395c-1.1,-0 -2.097,0.215 -2.959,0.644c-0.878,0.468 -1.626,1.042 -2.22,1.767c-0.609,0.759 -1.115,1.587 -1.499,2.534c-0.371,0.939 -0.578,1.92 -0.586,2.955l14.175,-0c-0,-1.123 -0.1,-2.127 -0.314,-3.086c-0.2,-0.939 -0.537,-1.767 -1.074,-2.491c-0.525,-0.717 -1.215,-1.292 -2.085,-1.706c-0.893,-0.402 -2.043,-0.617 -3.438,-0.617m-0.115,-5.987c4.726,-0 8.245,1.226 10.525,3.649c2.27,2.422 3.416,5.746 3.416,9.996c-0,1.062 -0.131,1.955 -0.38,2.668c-0.237,0.683 -0.605,1.219 -1.042,1.656c-0.445,0.418 -0.982,0.713 -1.564,0.855c-0.614,0.173 -1.25,0.257 -1.959,0.257l-16.398,-0c0.042,1.629 0.261,2.947 0.721,4.04c0.452,1.1 1.081,1.974 1.851,2.66c0.782,0.679 1.679,1.162 2.695,1.449c1.058,0.284 2.188,0.433 3.361,0.433c1.3,0 2.634,-0.172 3.887,-0.49c1.265,-0.322 2.4,-0.713 3.331,-1.177c0.64,-0.284 1.108,-0.18 1.376,0.375l1.664,3.496c0.291,0.679 0.122,1.135 -0.426,1.438c-1.575,0.958 -3.262,1.594 -5.155,1.981c-1.836,0.368 -3.607,0.545 -5.298,0.545c-4.983,-0 -8.793,-1.33 -11.415,-4.017c-2.629,-2.653 -3.967,-6.908 -3.967,-12.703c0,-2.722 0.38,-5.137 1.127,-7.256c0.732,-2.139 1.763,-3.929 3.036,-5.363c1.315,-1.476 2.859,-2.587 4.669,-3.327c1.82,-0.778 3.802,-1.165 5.945,-1.165" style="fill: rgb(127, 135, 140); fill-rule: nonzero;"></path><path d="M339.724,92.378l-5.946,-0c-0.678,-0 -1.437,0.046 -2.227,0.111c-0.805,0.088 -1.567,0.322 -2.292,0.69c-0.732,0.406 -1.307,0.889 -1.805,1.598c-0.453,0.709 -0.694,1.691 -0.694,2.89c-0,1.787 0.609,3.017 1.79,3.734c1.181,0.701 2.787,1.054 4.753,1.054c0.303,-0 0.667,-0.027 1.196,-0.05c0.54,-0.034 1.066,-0.065 1.637,-0.157c0.586,-0.081 1.196,-0.18 1.824,-0.303c0.64,-0.126 1.246,-0.268 1.764,-0.498l-0,-9.069Zm7.286,11.679c0,0.985 -0.391,1.656 -1.188,2.035c-0.874,0.395 -1.844,0.763 -2.902,1.039c-1.081,0.288 -2.142,0.522 -3.254,0.683c-1.123,0.161 -2.235,0.287 -3.293,0.341c-1.107,0.065 -2.131,0.08 -3.131,0.08c-2.714,0 -4.949,-0.26 -6.762,-0.816c-1.778,-0.564 -3.193,-1.296 -4.27,-2.223c-1.016,-0.955 -1.756,-2.024 -2.189,-3.297c-0.406,-1.238 -0.609,-2.564 -0.609,-3.956c-0,-1.472 0.23,-2.825 0.713,-4.17c0.456,-1.342 1.253,-2.522 2.323,-3.542c1.054,-0.993 2.457,-1.809 4.155,-2.419c1.706,-0.636 3.806,-0.939 6.275,-0.939l6.915,0l-0,-1.042c-0,-0.767 -0.069,-1.495 -0.257,-2.178c-0.157,-0.64 -0.487,-1.207 -0.947,-1.721c-0.487,-0.475 -1.127,-0.874 -1.959,-1.104c-0.809,-0.295 -1.878,-0.433 -3.197,-0.433c-1.395,0 -2.94,0.123 -4.58,0.391c-1.625,0.226 -2.959,0.502 -4.01,0.855c-0.463,0.107 -0.785,0.127 -0.977,0.061c-0.219,-0.069 -0.364,-0.306 -0.445,-0.69l-0.858,-3.515c-0.169,-0.655 0.007,-1.088 0.567,-1.284c1.713,-0.64 3.599,-1.127 5.654,-1.403c2.074,-0.253 4.005,-0.402 5.815,-0.402c4.277,-0 7.421,0.947 9.421,2.84c1.974,1.879 2.99,4.661 2.99,8.291l0,18.518Z" style="fill: rgb(127, 135, 140); fill-rule: nonzero;"></path><path d="M149.985,64.626c-0.161,-0.234 -0.51,-0.326 -1.078,-0.326l-17.356,-0c-2.081,-0 -3.844,0.291 -5.236,0.92c-1.426,0.609 -2.549,1.437 -3.396,2.453c-0.87,1.046 -1.48,2.215 -1.836,3.561c-0.337,1.341 -0.514,2.717 -0.514,4.178l0,30.86c0,0.525 0.115,0.897 0.372,1.039c0.245,0.165 0.594,0.261 1.066,0.261l1.939,-0c1.338,-0.096 4.148,-0.775 4.148,-4.796l-0,-14.236l18.51,0c0.563,0 0.893,-0.115 1.031,-0.368c0.165,-0.245 0.234,-0.586 0.234,-1.05l-0,-3.507c-0,-0.61 -0.069,-0.955 -0.234,-1.131c-0.138,-0.184 -0.468,-0.311 -1.031,-0.311l-18.51,0l-0,-7.202c-0,-1.315 0.318,-2.315 0.985,-2.99c0.617,-0.697 1.717,-1.023 3.273,-1.023l16.555,-0c0.522,-0 0.886,-0.115 1.047,-0.326c0.176,-0.184 0.264,-0.567 0.264,-1.112l0,-3.817c0,-0.483 -0.088,-0.847 -0.233,-1.077" style="fill: rgb(127, 135, 140); fill-rule: nonzero;"></path><path d="M247.438,96.319c-0.41,1.361 -1.008,2.496 -1.732,3.347c-0.767,0.858 -1.652,1.483 -2.726,1.87c-1.027,0.406 -2.219,0.575 -3.484,0.575c-0.847,0 -1.801,-0.019 -2.875,-0.142c-1.065,-0.103 -2.085,-0.295 -3.085,-0.636l-0,-19.756c1.318,-0.41 2.579,-0.682 3.768,-0.786c1.238,-0.142 2.138,-0.207 2.802,-0.207c2.483,0 4.423,0.87 5.834,2.68c1.406,1.744 2.096,4.45 2.096,8.068c0,1.971 -0.195,3.634 -0.598,4.987m7.184,-11.928c-0.56,-2.055 -1.403,-3.807 -2.542,-5.294c-1.131,-1.472 -2.587,-2.629 -4.389,-3.442c-1.774,-0.847 -3.906,-1.25 -6.363,-1.25c-1.127,0 -2.395,0.1 -3.81,0.28c-1.422,0.188 -2.74,0.475 -3.933,0.836l-0.049,-11.963c-0,-0.503 -0.081,-0.798 -0.238,-0.936c-0.157,-0.145 -0.479,-0.172 -0.931,-0.172l-1.94,-0c-1.353,0.088 -3.96,0.809 -4.052,4.642l0,37.449c0,0.349 0.062,0.656 0.181,0.916c0.126,0.2 0.387,0.38 0.728,0.552c1.863,0.844 3.879,1.407 6.083,1.725c2.212,0.349 4.366,0.51 6.478,0.51c2.695,0 5.048,-0.429 7.045,-1.284c1.947,-0.859 3.573,-2.078 4.857,-3.626c1.269,-1.549 2.223,-3.358 2.813,-5.466c0.602,-2.105 0.878,-4.389 0.878,-6.85c0,-2.384 -0.276,-4.596 -0.816,-6.627" style="fill: rgb(127, 135, 140); fill-rule: nonzero;"></path><path d="M302.55,106.092l-0.417,-3.465c-0.043,-0.352 -0.138,-0.54 -0.28,-0.655c-0.134,-0.104 -0.368,-0.119 -0.709,-0.088c-0.28,0.038 -0.648,0.08 -1.085,0.126c-0.418,0.05 -0.836,0.062 -1.131,0.062c-0.824,-0 -1.376,-0.204 -1.675,-0.602c-0.28,-0.364 -0.41,-1.104 -0.41,-2.177l-0,-35.794c-0,-0.468 -0.104,-0.732 -0.295,-0.874c-0.177,-0.146 -0.514,-0.184 -0.955,-0.184l-1.993,0c-1.342,0.104 -3.917,0.801 -4.075,4.481l0,34.088c0,2.687 0.541,4.561 1.614,5.631c1.085,1.081 2.752,1.598 5.075,1.598c0.817,0 1.744,-0.05 2.795,-0.138c1.05,-0.126 2,-0.322 2.813,-0.667c0.414,-0.203 0.671,-0.391 0.728,-0.529c0.085,-0.126 0.085,-0.414 0,-0.813" style="fill: rgb(127, 135, 140); fill-rule: nonzero;"></path><path d="M318.385,106.092l-0.426,-3.465c-0.053,-0.352 -0.118,-0.54 -0.283,-0.655c-0.123,-0.104 -0.395,-0.119 -0.698,-0.088c-0.303,0.038 -0.671,0.08 -1.092,0.126c-0.426,0.05 -0.817,0.062 -1.135,0.062c-0.824,-0 -1.384,-0.204 -1.667,-0.602c-0.292,-0.364 -0.41,-1.104 -0.41,-2.177l-0,-35.794c-0,-0.468 -0.115,-0.732 -0.299,-0.874c-0.169,-0.146 -0.499,-0.184 -0.959,-0.184l-1.981,0c-1.38,0.104 -4.029,0.836 -4.086,4.715l-0,33.854c-0,2.687 0.555,4.561 1.613,5.631c1.066,1.081 2.768,1.598 5.072,1.598c0.835,0 1.751,-0.05 2.828,-0.138c1.024,-0.126 1.967,-0.322 2.799,-0.667c0.417,-0.203 0.643,-0.391 0.724,-0.529c0.084,-0.126 0.084,-0.414 -0,-0.813" style="fill: rgb(127, 135, 140); fill-rule: nonzero;"></path><path d="M193.882,106.092l-0.426,-3.465c-0.057,-0.352 -0.161,-0.54 -0.272,-0.655c-0.153,-0.104 -0.391,-0.119 -0.732,-0.088c-0.28,0.038 -0.655,0.08 -1.092,0.126c-0.43,0.05 -0.813,0.062 -1.131,0.062c-0.813,-0 -1.376,-0.204 -1.656,-0.602c-0.303,-0.364 -0.456,-1.104 -0.456,-2.177l-0,-35.794c-0,-0.468 -0.073,-0.732 -0.253,-0.874c-0.215,-0.146 -0.499,-0.184 -0.959,-0.184l-2,0c-1.365,0.104 -4.04,0.836 -4.04,4.772l-0,33.797c-0,2.687 0.517,4.561 1.586,5.631c1.074,1.081 2.745,1.598 5.079,1.598c0.805,0 1.741,-0.05 2.806,-0.138c1.024,-0.126 1.974,-0.322 2.806,-0.667c0.399,-0.203 0.655,-0.391 0.74,-0.529c0.069,-0.126 0.069,-0.414 -0,-0.813" style="fill: rgb(127, 135, 140); fill-rule: nonzero;"></path></g></g></svg>